<svg xmlns="http://www.w3.org/2000/svg" width="32.598" height="39.92" viewBox="0 0 32.598 39.92">
  <g id="np_career_1801460_000000" transform="translate(-11.284 -2.449)">
    <path id="Path_2033" data-name="Path 2033" d="M42.435,2.469a3.36,3.36,0,1,1-3.7,2.978,3.36,3.36,0,0,1,3.7-2.978" transform="translate(-15.908 0)" fill="#fff"/>
    <path id="Path_2034" data-name="Path 2034" d="M34.221,24.427,31.2,23.965a.718.718,0,0,1-.42-.253c-2.057-3.024-2.814-3.737-3.4-3.906l-1.134,2.52-.294-1.68h.043a.305.305,0,0,0,.294-.253l.043-.42a.305.305,0,0,0-.253-.294l-.546-.043a.305.305,0,0,0-.294.253l-.043.42a.305.305,0,0,0,.253.294h.043l-.463,1.637-.8-2.646c-.463.043-1.344.377-4.326,2.143a4.811,4.811,0,0,0-1.847,1.933l-1.6,3.066a.85.85,0,0,0-.126.463H16.2a1.077,1.077,0,0,0-.587.463l-.463.84-.84-.463a.891.891,0,0,0-1.176.377l-1.764,3.36a.891.891,0,0,0,.377,1.176l5.04,2.646a.891.891,0,0,0,1.176-.377l1.764-3.36a.891.891,0,0,0-.377-1.176l-.84-.463.463-.84a.968.968,0,0,0-.084-1.007.923.923,0,0,0,.21-.336l1.6-3.024a1.781,1.781,0,0,1,.714-.756,1.237,1.237,0,0,1,.336-.167l-.924,4.033a2.982,2.982,0,0,0,.42,2.31,2.821,2.821,0,0,0,1.806,1.217L20.74,41.6a1.725,1.725,0,0,0,1.3,2.057,1.147,1.147,0,0,0,.377.043A1.709,1.709,0,0,0,24.1,42.36l2.31-10.08,2.016.377L29.56,37.74a1.709,1.709,0,0,0,1.68,1.344,1.137,1.137,0,0,0,.377-.043,1.727,1.727,0,0,0,1.3-2.057l-1.176-5.417A2.91,2.91,0,0,0,29.35,29.3l-2.184-.377.883-3.823c.084.126.126.21.21.336a3.651,3.651,0,0,0,2.477,1.554l3.024.463a1.53,1.53,0,0,0,.461-3.025ZM17.59,29.761l-1.637-.84.42-.84a1.511,1.511,0,0,0,.63.63,1.378,1.378,0,0,0,.714.167c.043,0,.126-.043.167-.043l.126.084Z" transform="translate(0 -9.945)" fill="#fff"/>
    <path id="Path_2035" data-name="Path 2035" d="M36.031,78.8h-5.5a.645.645,0,0,0-.63.63v6.593a.645.645,0,0,0,.63.63h5.5a.645.645,0,0,0,.63-.63V79.388a.609.609,0,0,0-.63-.587Z" transform="translate(-10.797 -44.285)" fill="#fff"/>
    <path id="Path_2036" data-name="Path 2036" d="M57.474,68H51.931a.645.645,0,0,0-.63.63V79.76a.645.645,0,0,0,.63.63h5.543a.645.645,0,0,0,.63-.63V68.63A.619.619,0,0,0,57.474,68Z" transform="translate(-23.211 -38.021)" fill="#fff"/>
    <path id="Path_2037" data-name="Path 2037" d="M78.931,57.2h-5.5a.645.645,0,0,0-.63.63V73.495a.645.645,0,0,0,.63.63h5.5a.645.645,0,0,0,.63-.63l0-15.666a.618.618,0,0,0-.63-.63Z" transform="translate(-35.68 -31.756)" fill="#fff"/>
  </g>
</svg>
