<svg xmlns="http://www.w3.org/2000/svg" width="40.535" height="40.532" viewBox="0 0 40.535 40.532">
  <g id="np_calendar_888685_000000" transform="translate(-16.668 -16.668)">
    <path id="Path_2038" data-name="Path 2038" d="M31.7,16.668A2.541,2.541,0,0,0,29.164,19.2V23H34.23V19.2A2.538,2.538,0,0,0,31.7,16.668Z" transform="translate(-4.898)" fill="#fff"/>
    <path id="Path_2039" data-name="Path 2039" d="M49.6,27.082v2.534a2.534,2.534,0,1,1-5.068,0V27.082h-15.2v2.534a2.534,2.534,0,0,1-5.068,0V27.082h-7.6v34.2H57.2l0-34.2Zm2.534,29.134h-30.4V34.682h30.4Z" transform="translate(0 -4.082)" fill="#fff"/>
    <path id="Path_2040" data-name="Path 2040" d="M65.034,16.668A2.541,2.541,0,0,0,62.5,19.2V23h5.066V19.2a2.541,2.541,0,0,0-2.532-2.534Z" transform="translate(-17.966)" fill="#fff"/>
    <path id="Path_2041" data-name="Path 2041" d="M41.422,60.454l-6.84-6.84,3.548-3.548,3.292,3.294L49.782,45l3.548,3.546Z" transform="translate(-7.022 -11.106)" fill="#fff"/>
  </g>
</svg>
