<svg xmlns="http://www.w3.org/2000/svg" width="31.775" height="38.726" viewBox="0 0 31.775 38.726">
  <g id="np_doctor_1184213_000000" transform="translate(-13.079 -5)">
    <path id="Path_2028" data-name="Path 2028" d="M21.891,73.919c.545,0,1.1,0,1.674,0h10.8c.568,0,1.129,0,1.674,0,5,0,8.814-.257,8.814-5.479a10.49,10.49,0,0,0-6.446-9.676,7.416,7.416,0,0,1,1.01,3.368,2.553,2.553,0,1,1-1.178.01,5.256,5.256,0,0,0-2.032-4.026c-.287-.05-.58-.092-.874-.119-.044,1.913-2.876,3.454-6.367,3.454S22.644,59.91,22.6,58a10.5,10.5,0,0,0-1.113.165,4.462,4.462,0,0,0-1.706,3.5,1.3,1.3,0,0,1,.526.585,4.881,4.881,0,0,1,2.15,2.419.842.842,0,0,1,.039.632,7.6,7.6,0,0,1,.535,2.639c0,1.126,0,2.193-1.229,2.467a.737.737,0,0,1-.476.171h-.82a.747.747,0,0,1-.746-.746l0-.029a.751.751,0,0,1,.746-.718h.82a.76.76,0,0,1,.245.042.162.162,0,0,0,.066-.027,4.359,4.359,0,0,0,.091-1.16,6.241,6.241,0,0,0-.45-2.177.831.831,0,0,1-.343-.366c-.5-1.044-1.175-1.716-1.724-1.716s-1.272.728-1.77,1.81a.855.855,0,0,1-.4.407,6.1,6.1,0,0,0-.4,2.042,4.026,4.026,0,0,0,.1,1.163.535.535,0,0,0,.089.03.732.732,0,0,1,.267-.05h.824a.747.747,0,0,1,.741.672l.005.045a.755.755,0,0,1-.746.777h-.824a.744.744,0,0,1-.45-.153,1.414,1.414,0,0,1-1.01-.634,3.494,3.494,0,0,1-.3-1.851,7.52,7.52,0,0,1,.518-2.59.834.834,0,0,1,.049-.56A6.209,6.209,0,0,1,17.192,62.9a3.542,3.542,0,0,1,.859-.619,1.307,1.307,0,0,1,.551-.62,6.058,6.058,0,0,1,.775-2.837,10.478,10.478,0,0,0-6.3,9.611c0,5.222,3.815,5.479,8.812,5.479Z" transform="translate(0 -30.193)" fill="#fff"/>
    <path id="Path_2029" data-name="Path 2029" d="M72.593,71.834a1.179,1.179,0,1,1-2.358,0,1.179,1.179,0,0,1,2.358,0" transform="translate(-32.563 -37.405)" fill="#fff"/>
    <path id="Path_2030" data-name="Path 2030" d="M27.783,12.97v2.121c0,.01-.005.02-.008.03a2.414,2.414,0,0,0-1.837,2.293v1.874a2.419,2.419,0,0,0,1.846,2.3,2.7,2.7,0,0,0,.686.092c1.435,3.846,4.4,7.5,7.821,7.5,3.323,0,6.214-3.437,7.691-7.155a4.725,4.725,0,0,0,.314-.353,2.622,2.622,0,0,0,.45-.069,2.418,2.418,0,0,0,1.9-2.308V17.416a2.41,2.41,0,0,0-1.835-2.288c-.018-.079-.04-.156-.061-.235V12.972A8.246,8.246,0,0,0,36.265,5a8.247,8.247,0,0,0-8.481,7.97ZM36.291,27.8c-2.913,0-5.444-3.047-6.737-6.325V15.295a6.725,6.725,0,0,1,1.513-2.141C32.374,17.129,41.4,15.339,41.4,15.339a1.875,1.875,0,0,1,1.583.56v5.555a8.4,8.4,0,0,1-4.9,1.866,1.1,1.1,0,0,0-.928-.506H35.683a1.108,1.108,0,1,0,0,2.215h1.472a1.1,1.1,0,0,0,.977-.6,10.781,10.781,0,0,0,4-1.062c-1.4,2.471-3.5,4.436-5.836,4.436ZM36.265,6.664a6.682,6.682,0,0,1,6.419,4.468,8.713,8.713,0,0,0-12.859.079,6.677,6.677,0,0,1,6.441-4.546Z" transform="translate(-7.326)" fill="#fff"/>
  </g>
</svg>
