<svg xmlns="http://www.w3.org/2000/svg" width="31.496" height="38.767" viewBox="0 0 31.496 38.767">
  <g id="np_location_888709_000000" transform="translate(-22.918 -16.668)">
    <path id="Path_2031" data-name="Path 2031" d="M38.666,62.5c-8.722,0-15.748,2.664-15.748,6.058s7.026,6.058,15.748,6.058,15.748-2.664,15.748-6.058S47.388,62.5,38.666,62.5Zm0,8.479c-6.058,0-10.9-1.09-10.9-2.424s4.845-2.424,10.9-2.424,10.9,1.09,10.9,2.424S44.724,70.979,38.666,70.979Z" transform="translate(0 -19.181)" fill="#fff"/>
    <path id="Path_2032" data-name="Path 2032" d="M42.153,16.668a10.857,10.857,0,0,0-10.9,10.9c0,6.058,10.9,23.017,10.9,23.017s10.9-16.961,10.9-23.017A10.857,10.857,0,0,0,42.153,16.668Zm0,15.748A4.845,4.845,0,1,1,47,27.571,4.86,4.86,0,0,1,42.153,32.416Z" transform="translate(-3.487)" fill="#fff"/>
  </g>
</svg>
